<svg xmlns="http://www.w3.org/2000/svg" xmlns:xlink="http://www.w3.org/1999/xlink" width="24" height="24" viewBox="0 0 24 24">
  <defs>
    <clipPath id="clip-path">
      <circle id="Ellipse_3" data-name="Ellipse 3" cx="12" cy="12" r="12" fill="#fff"/>
    </clipPath>
    <radialGradient id="radial-gradient" cx="0.372" cy="1.001" r="1.247" gradientUnits="objectBoundingBox">
      <stop offset="0" stop-color="#fd5"/>
      <stop offset="0.328" stop-color="#ff543f"/>
      <stop offset="0.348" stop-color="#fc5245"/>
      <stop offset="0.504" stop-color="#e64771"/>
      <stop offset="0.643" stop-color="#d53e91"/>
      <stop offset="0.761" stop-color="#cc39a4"/>
      <stop offset="0.841" stop-color="#c837ab"/>
    </radialGradient>
    <radialGradient id="radial-gradient-2" cx="0.161" cy="-0.012" r="0.828" gradientUnits="objectBoundingBox">
      <stop offset="0" stop-color="#4168c9"/>
      <stop offset="0.999" stop-color="#4168c9" stop-opacity="0"/>
    </radialGradient>
  </defs>
  <g id="Group_39764" data-name="Group 39764" transform="translate(0 0.143)">
    <circle id="Ellipse_2" data-name="Ellipse 2" cx="12" cy="12" r="12" transform="translate(0 -0.143)" fill="#fff"/>
    <g id="Mask_Group_1" data-name="Mask Group 1" transform="translate(0 -0.143)" clip-path="url(#clip-path)">
      <g id="icons8-instagram" transform="translate(0.001 0.137)">
        <path id="Path_90025" data-name="Path 90025" d="M24.806,30.159l-13.427.013A5.387,5.387,0,0,1,6,24.806L5.99,11.379A5.387,5.387,0,0,1,11.356,6L24.783,5.99a5.387,5.387,0,0,1,5.376,5.366l.013,13.427A5.386,5.386,0,0,1,24.806,30.159Z" transform="translate(-5.99 -5.99)" fill="url(#radial-gradient)"/>
        <path id="Path_90026" data-name="Path 90026" d="M24.806,30.159l-13.427.013A5.387,5.387,0,0,1,6,24.806L5.99,11.379A5.387,5.387,0,0,1,11.356,6L24.783,5.99a5.387,5.387,0,0,1,5.376,5.366l.013,13.427A5.386,5.386,0,0,1,24.806,30.159Z" transform="translate(-5.99 -5.99)" fill="url(#radial-gradient-2)"/>
      </g>
    </g>
    <g id="Group_39768" data-name="Group 39768" transform="translate(5.344 5.338)">
      <path id="Path_90020" data-name="Path 90020" d="M20.633,24.267a3.633,3.633,0,1,1,3.633-3.633A3.638,3.638,0,0,1,20.633,24.267Zm0-6.229a2.6,2.6,0,1,0,2.6,2.6A2.6,2.6,0,0,0,20.633,18.038Z" transform="translate(-13.886 -13.886)" fill="#fff"/>
      <circle id="Ellipse_1" data-name="Ellipse 1" cx="0.868" cy="0.868" r="0.868" transform="translate(9.564 2.179)" fill="#fff"/>
      <path id="Path_90021" data-name="Path 90021" d="M20.862,24.5H14.633A3.638,3.638,0,0,1,11,20.862V14.633A3.638,3.638,0,0,1,14.633,11h6.229A3.638,3.638,0,0,1,24.5,14.633v6.229A3.638,3.638,0,0,1,20.862,24.5ZM14.633,12.038a2.6,2.6,0,0,0-2.6,2.6v6.229a2.6,2.6,0,0,0,2.6,2.6h6.229a2.6,2.6,0,0,0,2.6-2.6V14.633a2.6,2.6,0,0,0-2.6-2.6Z" transform="translate(-11 -11)" fill="#fff"/>
    </g>
  </g>
</svg>