<svg xmlns:xlink="http://www.w3.org/1999/xlink" xmlns="http://www.w3.org/2000/svg" width="24" height="24" viewBox="0 0 24 24">
  <g id="Group_39765" data-name="Group 39765" transform="translate(0 0.286)">
    <circle id="Ellipse_2" data-name="Ellipse 2" cx="12" cy="12" r="12" transform="translate(0 -0.286)" fill="#37aee2"/>
    <path id="_7a8a277098382cfd378afffc39a49a9d" data-name="7a8a277098382cfd378afffc39a49a9d" d="M13.423,8.32c.439-.439.874-1.463-.954-.219Q9.908,9.864,7.312,11.576a2.146,2.146,0,0,1-1.683.037c-1.1-.329-2.377-.768-2.377-.768s-.874-.549.622-1.134c0,0,6.328-2.6,8.523-3.512.841-.366,3.694-1.536,3.694-1.536s1.317-.513,1.207.731c-.037.512-.329,2.305-.622,4.243-.44,2.743-.915,5.743-.915,5.743s-.073.841-.695.987a3.01,3.01,0,0,1-1.828-.658c-.146-.11-2.743-1.756-3.695-2.56a.693.693,0,0,1,.037-1.171q1.957-1.791,3.843-3.658Z" transform="translate(1.117 2.297)" fill="#fff"/>
  </g>
</svg>