<svg xmlns:xlink="http://www.w3.org/1999/xlink" xmlns="http://www.w3.org/2000/svg" width="24" height="24" viewBox="0 0 24 24">
  <g id="Group_39767" data-name="Group 39767" transform="translate(0 -0.428)">
    <circle id="Ellipse_2" data-name="Ellipse 2" cx="12" cy="12" r="12" transform="translate(0 0.428)" fill="#03a9f4"/>
    <path id="_3b8384f8d46b747299d943665978f7af" data-name="3b8384f8d46b747299d943665978f7af" d="M14.17,3.363a6.057,6.057,0,0,1-1.674.459,2.889,2.889,0,0,0,1.278-1.606,5.805,5.805,0,0,1-1.842.7A2.9,2.9,0,0,0,6.907,4.906a2.991,2.991,0,0,0,.067.662A8.222,8.222,0,0,1,.987,2.53a2.909,2.909,0,0,0,.893,3.883A2.869,2.869,0,0,1,.567,6.054v.032A2.918,2.918,0,0,0,2.894,8.941a2.9,2.9,0,0,1-.762.1,2.568,2.568,0,0,1-.55-.05A2.932,2.932,0,0,0,4.3,11.01,5.836,5.836,0,0,1,.7,12.249a5.441,5.441,0,0,1-.7-.04,8.178,8.178,0,0,0,4.456,1.3,8.211,8.211,0,0,0,8.268-8.266c0-.128,0-.252-.011-.376A5.8,5.8,0,0,0,14.17,3.363Z" transform="translate(4.915 4.672)" fill="#fff"/>
  </g>
</svg>