<svg xmlns:xlink="http://www.w3.org/1999/xlink" xmlns="http://www.w3.org/2000/svg" id="Group_39763" data-name="Group 39763" width="24" height="24" viewBox="0 0 24 24">
  <circle id="Ellipse_2" data-name="Ellipse 2" cx="12" cy="12" r="12" fill="#f44336"/>
  <g id="_2443570c3018eacc9a2e73733e21dec3" data-name="2443570c3018eacc9a2e73733e21dec3" transform="translate(4.257 6.705)">
    <path id="Path_90016" data-name="Path 90016" d="M15,4.038c-.425-.756-.886-.9-1.825-.948S9.88,3,7.836,3s-4.408.026-5.345.089-1.4.192-1.828.949S0,6.094,0,8.383v.008c0,2.28.225,3.59.663,4.337s.89.893,1.827.957,3.3.087,5.346.087,4.4-.032,5.342-.086,1.4-.2,1.825-.957c.442-.747.665-2.057.665-4.337V8.384c0-2.291-.223-3.591-.666-4.346Z" transform="translate(0 -3)" fill="#fff" fill-rule="evenodd"/>
    <path id="Path_90017" data-name="Path 90017" d="M6,11.376V5.5l4.9,2.938Z" transform="translate(-0.124 -3.052)" fill="#f44336" fill-rule="evenodd"/>
  </g>
</svg>